:SAMPLES-PER-SECOND 30
:FRAME-RANGE 1-4244
:FULLY-SPECIFIED
:DEGREES
1194
root  0.292781 39.0134 -3.11844 -152.265 -80.4562 161.154
RightUpLeg  -15.4068 -18.1246 -2.45508
RightLeg  28.9343 -12.2822 -7.47737
RightFoot  -17.9254 0.444157 9.8187
RightToes  -1.33073e-015 0 -3.6325e-017
Spine  3.80421 -3.16892 -3.94969
Spine1  0.791078 -3.07966 -1.45873
HEad  -1.95052 -25.3034 8.08996
LeftShoulder1  1.90025 -5.365 -15.3564
LeftArm  10.0044 -21.709 -66.3017
LeftForeArm  134.911 -80.8707 -106.041
LeftHand  -0.0939981 4.40762 9.276
RightShoulder  1.47225 2.61997 18.342
RightArm  -9.5191 18.7931 52.2555
RightForeArm  -162.508 66.9749 159.966
RightHand  0.233316 -7.86434 -12.1431
LeftUpLeg  -12.9346 5.35757 12.5101
LeftLeg  25.1551 10.1529 5.49935
LeftFoot  -6.90376 0.59747 -14.296
LeftToes  2.72522e-012 8.43823e-011 6.24977e-012
1195
root  -0.0648437 39.4432 -4.38646 -149.248 -80.8137 157.698
RightUpLeg  -14.2904 -17.2108 -1.53973
RightLeg  29.5124 -12.3174 -7.66564
RightFoot  -15.8253 0.316026 10.7934
RightToes  -1.33073e-015 0 -3.6325e-017
Spine  3.75997 -3.11711 -3.93726
Spine1  0.534028 -3.06307 -1.18415
HEad  -0.935892 -26.125 8.49912
LeftShoulder1  1.85814 -5.38092 -14.7811
LeftArm  11.4097 -22.8151 -66.2832
LeftForeArm  129.968 -81.04 -101.286
LeftHand  -0.112481 4.17737 9.38199
RightShoulder  1.45385 2.56607 18.2472
RightArm  -11.3653 18.5312 51.4787
RightForeArm  -161.819 66.4383 160.529
RightHand  0.247098 -7.94807 -12.3654
LeftUpLeg  -13.6188 6.92819 7.89938
LeftLeg  27.4292 5.08973 3.20827
LeftFoot  -10.1197 0.227667 -15.6124
LeftToes  2.72522e-012 8.43823e-011 6.24977e-012
1196
root  -0.342347 39.6795 -5.5946 -148.191 -81.2465 156.274
RightUpLeg  -16.8633 -17.8901 -1.09413
RightLeg  36.6763 -7.81415 -6.45924
RightFoot  -12.6781 0.0710067 13.441
RightToes  -1.33073e-015 0 -3.6325e-017
Spine  4.26449 -3.15306 -4.51471
Spine1  0.104455 -3.27346 -0.614043
HEad  -0.35156 -26.7306 9.12774
LeftShoulder1  1.88931 -5.7631 -14.169
LeftArm  12.486 -23.5986 -67.0169
LeftForeArm  125.941 -81.2242 -95.8304
LeftHand  -0.111335 4.2104 9.53126
RightShoulder  1.43637 2.3821 18.7763
RightArm  -12.7899 18.1366 49.9516
RightForeArm  -163.005 65.8464 160.944
RightHand  0.288352 -8.26046 -12.6993
LeftUpLeg  -14.4527 6.84474 3.97915
LeftLeg  29.4121 -1.967 -0.846719
LeftFoot  -14.5159 -0.471916 -19.9674
LeftToes  2.72522e-012 8.43823e-011 6.24977e-012
1197
root  -0.605318 39.6427 -6.78381 -151.869 -80.8945 159.597
RightUpLeg  -22.78 -16.8489 -1.58838
RightLeg  49.0312 -1.42378 -2.09876
RightFoot  -6.02712 -0.7182 14.5147
RightToes  -1.33073e-015 0 -3.6325e-017
Spine  4.50944 -3.14541 -5.5462
Spine1  0.461297 -3.53219 0.193693
HEad  -0.18821 -26.2272 9.59571
LeftShoulder1  1.94888 -6.35129 -13.4514
LeftArm  12.4171 -24.1293 -67.5239
LeftForeArm  123.617 -81.2527 -93.4928
LeftHand  -0.110688 4.116 9.44847
RightShoulder  1.4979 2.47444 19.4965
RightArm  -13.7888 18.4651 48.9346
RightForeArm  -163.05 65.9023 160.891
RightHand  0.311661 -8.4308 -12.882
LeftUpLeg  -15.0552 6.85202 1.30811
LeftLeg  31.8307 -10.8799 -6.85223
LeftFoot  -20.2821 -1.82614 -24.5551
LeftToes  2.72522e-012 8.43823e-011 6.24977e-012
1198
root  -0.889911 39.1904 -8.00767 -158.133 -80.4057 165.235
RightUpLeg  -28.4492 -13.0557 -3.23829
RightLeg  60.6441 2.73269 4.765
RightFoot  -0.942336 -1.46731 15.9578
RightToes  -1.33073e-015 0 -3.6325e-017
Spine  4.91285 -3.34494 -6.82507
Spine1  0.771317 -4.1526 1.67789
HEad  0.155234 -24.7155 9.44987
LeftShoulder1  2.02674 -6.92369 -13.0452
LeftArm  11.6375 -24.7063 -67.0613
LeftForeArm  125.091 -81.1344 -96.7427
LeftHand  -0.0595043 4.83371 11.0736
RightShoulder  1.52687 2.4591 20.1135
RightArm  -13.5758 19.4736 49.1153
RightForeArm  -163.43 66.6718 160.162
RightHand  0.319383 -8.48854 -12.9332
LeftUpLeg  -15.3869 7.4928 0.233864
LeftLeg  34.5733 -14.0735 -9.86539
LeftFoot  -20.0836 -2.06518 -28.0527
LeftToes  2.72522e-012 8.43823e-011 6.24977e-012
1199
root  -1.21729 38.5194 -9.36485 -162.875 -80.3073 169.032
RightUpLeg  -31.248 -9.0121 -6.77612
RightLeg  67.0587 3.33185 7.97525
RightFoot  -5.62292 -0.874189 16.6232
RightToes  -1.33073e-015 0 -3.6325e-017
Spine  5.80121 -3.5969 -8.77036
Spine1  0.237148 -4.93001 3.0692
HEad  1.12811 -23.4594 8.92388
LeftShoulder1  2.03415 -7.15699 -12.6353
LeftArm  11.1429 -25.4958 -67.0954
LeftForeArm  127.144 -81.1198 -98.3778
LeftHand  -0.0648978 4.86975 10.9775
RightShoulder  1.46717 2.15871 20.4936
RightArm  -12.9357 19.7099 49.3606
RightForeArm  -163.77 66.922 159.894
RightHand  0.331629 -8.60267 -12.9269
LeftUpLeg  -15.1772 7.26074 0.108365
LeftLeg  36.9105 -8.3018 -6.25491
LeftFoot  -18.9921 -0.707144 -12.235
LeftToes  2.72522e-012 8.43823e-011 6.24977e-012
1200
root  -1.577 37.668 -10.7493 -169.838 -80.8558 174.87
RightUpLeg  -32.4487 -5.58278 -11.5246
RightLeg  67.7937 2.67482 6.53734
RightFoot  -9.79876 -0.258119 14.1362
RightToes  -1.33073e-015 0 -3.6325e-017
Spine  6.92567 -3.90415 -9.52217
Spine1  -0.41516 -5.62417 3.94114
HEad  1.44093 -22.9632 8.64595
LeftShoulder1  2.03275 -7.28174 -12.3672
LeftArm  11.1352 -26.6646 -67.6452
LeftForeArm  126.042 -81.1576 -97.0297
LeftHand  -0.0956254 4.49118 10.44
RightShoulder  1.37225 1.78383 20.5987
RightArm  -12.9705 19.424 49.2886
RightForeArm  -163.059 66.4984 160.357
RightHand  0.316777 -8.49352 -12.8229
LeftUpLeg  -13.5524 5.95913 2.40327
LeftLeg  38.9563 -4.50416 -3.48619
LeftFoot  -23.718 -0.380713 -4.82173
LeftToes  2.72522e-012 8.43823e-011 6.24977e-012
1201
root  -1.96877 36.8283 -12.1466 -173.83 -82.2109 177.823
RightUpLeg  -31.7284 -3.40874 -17.321
RightLeg  62.2544 0.512902 0.532664
RightFoot  -12.9118 0.0585848 10.6599
RightToes  -1.33073e-015 0 -3.6325e-017
Spine  8.21994 -4.39088 -10.4837
Spine1  -0.826534 -6.51118 5.30931
HEad  0.599653 -23.0387 8.6819
LeftShoulder1  2.09171 -7.69035 -12.1706
LeftArm  11.2023 -27.588 -68.243
LeftForeArm  121.822 -81.2012 -93.011
LeftHand  -0.105233 4.3819 10.4651
RightShoulder  1.23227 1.19932 20.9894
RightArm  -13.2 18.9886 48.8537
RightForeArm  -162.682 65.9817 160.856
RightHand  0.308259 -8.45071 -12.6846
LeftUpLeg  -12.0031 2.93024 5.14743
LeftLeg  40.768 -2.92477 -2.27991
LeftFoot  -29.4549 -0.701897 -5.51235
LeftToes  2.72522e-012 8.43823e-011 6.24977e-012
1202
root  -2.4324 36.2075 -13.5911 -176.142 -83.3173 179.864
RightUpLeg  -29.8703 -1.77517 -22.417
RightLeg  52.0163 -6.04367 -8.59623
RightFoot  -14.2019 0.125409 8.87357
RightToes  -1.33073e-015 0 -3.6325e-017
Spine  7.96294 -4.78738 -10.6868
Spine1  0.192518 -6.99755 5.99747
HEad  -1.49301 -23.7488 9.69237
LeftShoulder1  2.14767 -8.01099 -12.121
LeftArm  11.6785 -28.3234 -69.1577
LeftForeArm  114.526 -81.2016 -85.2241
LeftHand  -0.106884 4.40075 10.8936
RightShoulder  1.14427 0.794911 21.5576
RightArm  -14.0497 18.0923 48.1432
RightForeArm  -161.275 65.1934 161.656
RightHand  0.287839 -8.39777 -12.2593
LeftUpLeg  -11.4548 0.96553 7.87342
LeftLeg  42.5985 -2.34174 -1.87889
LeftFoot  -32.4233 -1.16797 -7.3199
LeftToes  2.72522e-012 8.43823e-011 6.24977e-012
1203
root  -3.02445 35.7683 -15.1408 -176.59 -82.7768 -179.509
RightUpLeg  -28.1238 0.270066 -26.5422
RightLeg  41.4319 -13.1197 -12.3699
RightFoot  -14.7474 0.110727 7.0842
RightToes  -1.33073e-015 0 -3.6325e-017
Spine  6.80595 -4.72889 -9.68056
Spine1  1.15784 -6.54575 5.3474
HEad  -2.73634 -24.4561 10.2018
LeftShoulder1  2.15811 -7.79987 -12.6245
LeftArm  12.3762 -27.896 -69.6199
LeftForeArm  108.819 -81.0866 -79.3295
LeftHand  -0.116102 4.29199 10.826
RightShoulder  1.12414 0.613889 22.376
RightArm  -14.53 17.0318 47.7207
RightForeArm  -160.946 65.1367 161.732
RightHand  0.283247 -8.37932 -12.2304
LeftUpLeg  -10.092 1.87855 11.0554
LeftLeg  42.862 -3.7282 -3.28098
LeftFoot  -33.9147 -1.69668 -9.50981
LeftToes  2.72522e-012 8.43823e-011 6.24977e-012
1204
root  -3.75282 35.5346 -16.977 -175.537 -81.965 -179.803
RightUpLeg  -26.6772 -1.59563 -27.9446
RightLeg  32.2969 -14.3926 -9.83069
RightFoot  -14.8036 0.133785 7.74312
RightToes  -1.33073e-015 0 -3.6325e-017
Spine  5.04029 -4.64387 -8.84001
Spine1  1.5185 -6.00237 4.45292
HEad  -2.48889 -25.0821 9.64008
LeftShoulder1  2.05745 -6.92638 -13.3706
LeftArm  12.9048 -26.0766 -69.4128
LeftForeArm  108.315 -81.0756 -78.4914
LeftHand  -0.125248 4.18231 10.7559
RightShoulder  1.09918 0.485464 22.7018
RightArm  -14.2562 16.3158 48.3496
RightForeArm  -161.637 65.904 161.021
RightHand  0.284316 -8.33149 -12.2703
LeftUpLeg  -7.57016 3.14532 14.5638
LeftLeg  40.1095 -5.48073 -4.53338
LeftFoot  -33.981 -2.21401 -12.048
LeftToes  2.72522e-012 8.43823e-011 6.24977e-012
1205
root  -4.51 35.6331 -19.0729 176.217 -82.7607 -170.88
RightUpLeg  -24.5719 -7.23829 -24.9512
RightLeg  27.7466 -11.1533 -6.51641
RightFoot  -13.6526 0.172789 13.126
RightToes  -1.33073e-015 0 -3.6325e-017
Spine  4.00035 -4.74245 -7.72603
Spine1  1.86352 -6.10152 5.14486
HEad  -2.35279 -25.8236 9.39372
LeftShoulder1  1.98178 -6.26384 -14.033
LeftArm  13.1467 -23.8709 -68.9848
LeftForeArm  113.854 -81.2198 -83.5096
LeftHand  -0.113204 4.29836 10.5539
RightShoulder  1.08377 0.378943 23.142
RightArm  -14.2163 15.8336 48.3256
RightForeArm  -161.352 66.1503 160.831
RightHand  0.295247 -8.38576 -12.4641
LeftUpLeg  -4.88148 1.94978 19.5426
LeftLeg  35.6255 -7.13199 -5.09321
LeftFoot  -30.8393 -2.73712 -16.9034
LeftToes  2.72522e-012 8.43823e-011 6.24977e-012
1206
root  -5.27498 35.7846 -21.5662 170.654 -83.9956 -164.395
RightUpLeg  -23.5886 -10.6316 -21.5101
RightLeg  28.9579 -8.4707 -5.26747
RightFoot  -13.1307 0.275206 23.0921
RightToes  -1.33073e-015 0 -3.6325e-017
Spine  2.52438 -4.67262 -8.65267
Spine1  2.34951 -6.13211 6.16738
HEad  -2.42794 -27.1621 10.6537
LeftShoulder1  1.90129 -5.89961 -13.9724
LeftArm  13.388 -22.5236 -68.9098
LeftForeArm  114.181 -81.2098 -84.4222
LeftHand  -0.112449 4.31569 10.6437
RightShoulder  1.10487 0.344999 24.0453
RightArm  -14.9641 15.2745 47.5713
RightForeArm  -161.578 66.1027 160.852
RightHand  0.31543 -8.50206 -12.7437
LeftUpLeg  -3.71964 -2.32455 23.772
LeftLeg  32.0088 -6.52221 -4.02368
LeftFoot  -23.9634 -2.60711 -24.5218
LeftToes  2.72522e-012 8.43823e-011 6.24977e-012
